<svg viewBox="0 0 27 27" xmlns="http://www.w3.org/2000/svg" width="26" height="26"><g fill="none"><path class="blendleIcon" d="M26.078 13.172c-.041 4.172-.982 7.702-3.222 9.917-2.198 2.265-5.687 3.214-9.817 3.256-4.13-.042-7.619-.991-9.817-3.256C.982 20.874.042 17.344 0 13.172.042 9.001.983 5.47 3.222 3.256 5.42.99 8.91.042 13.04 0c4.13.042 7.619.99 9.817 3.256 2.231 2.214 3.18 5.745 3.222 9.916z" fill="#FF6255"></path>
<g fill="#FFF" class="blendleArrows">
<path d="M14.155 13.172c-2.065-2.231-4.08-4.396-6.103-6.57-.741.584-.916.725-1.616 1.266 0 0 1.79 2.998 2.698 4.43.217.35.35.616.375.874-.017.258-.15.525-.375.875-.9 1.432-2.698 4.43-2.698 4.43.691.54.866.682 1.616 1.265 2.023-2.173 4.038-4.338 6.103-6.57"></path>
<path d="M21.324 13.172c-2.215-2.39-3.905-4.204-6.103-6.57-.741.584-.916.725-1.616 1.266 0 0 1.79 2.998 2.698 4.43.217.35.35.616.375.874-.017.258-.15.525-.375.875-.9 1.432-2.698 4.43-2.698 4.43.691.54.866.682 1.616 1.265 2.015-2.173 4.03-4.338 6.103-6.57"></path></g></g></svg>